<svg width="906" height="1213" viewBox="0 0 906 1213" fill="none" xmlns="http://www.w3.org/2000/svg">
<mask id="mask0_301_3" style="mask-type:alpha" maskUnits="userSpaceOnUse" x="94" y="-534" width="1022" height="2043">
<ellipse cx="604.803" cy="487.061" rx="510.531" ry="1021.06" fill="url(#paint0_radial_301_3)"/>
</mask>
<g mask="url(#mask0_301_3)">
<path d="M636.726 487.061C636.726 505.439 633 522.045 627.007 534.031C620.994 546.057 612.81 553.242 603.967 553.242C595.125 553.242 586.941 546.057 580.927 534.031C574.934 522.045 571.208 505.439 571.208 487.061C571.208 468.683 574.934 452.078 580.927 440.091C586.941 428.065 595.125 420.88 603.967 420.88C612.81 420.88 620.994 428.065 627.007 440.091C633 452.078 636.726 468.683 636.726 487.061Z" stroke="white" stroke-width="1.32778"/>
<path d="M686.86 487.061C686.86 533.127 677.522 574.8 662.457 604.931C647.371 635.102 626.654 653.51 603.967 653.51C581.28 653.51 560.563 635.102 545.477 604.931C530.412 574.8 521.074 533.127 521.074 487.061C521.074 440.995 530.412 399.322 545.477 369.191C560.563 339.02 581.28 320.612 603.967 320.612C626.654 320.612 647.371 339.02 662.457 369.191C677.522 399.322 686.86 440.995 686.86 487.061Z" stroke="white" stroke-width="1.32778"/>
<path d="M736.994 487.061C736.994 560.815 722.045 627.555 697.907 675.831C673.749 724.147 640.498 753.778 603.967 753.778C567.436 753.778 534.185 724.147 510.027 675.831C485.889 627.555 470.94 560.815 470.94 487.061C470.94 413.306 485.889 346.567 510.027 298.291C534.185 249.975 567.436 220.344 603.967 220.344C640.498 220.344 673.749 249.975 697.907 298.291C722.045 346.567 736.994 413.306 736.994 487.061Z" stroke="white" stroke-width="1.32778"/>
<path d="M787.128 487.061C787.128 588.504 766.568 680.31 733.357 746.731C700.127 813.192 654.342 854.046 603.967 854.046C553.593 854.046 507.808 813.192 474.578 746.731C441.367 680.31 420.807 588.504 420.807 487.061C420.807 385.619 441.367 293.812 474.578 227.391C507.808 160.93 553.593 120.076 603.967 120.076C654.342 120.076 700.127 160.93 733.357 227.391C766.568 293.812 787.128 385.619 787.128 487.061Z" stroke="white" stroke-width="1.32778"/>
<path d="M837.262 487.061C837.262 616.192 811.09 733.065 768.807 817.631C726.504 902.237 668.186 954.314 603.967 954.314C539.749 954.314 481.431 902.237 439.128 817.631C396.845 733.065 370.673 616.192 370.673 487.061C370.673 357.93 396.845 241.057 439.128 156.491C481.431 71.8854 539.749 19.8084 603.967 19.8084C668.186 19.8084 726.504 71.8854 768.807 156.491C811.09 241.057 837.262 357.93 837.262 487.061Z" stroke="white" stroke-width="1.32778"/>
<path d="M887.396 487.061C887.396 643.88 855.613 785.82 804.257 888.531C752.882 991.282 682.03 1054.58 603.967 1054.58C525.904 1054.58 455.053 991.282 403.678 888.531C352.322 785.82 320.539 643.88 320.539 487.061C320.539 330.242 352.322 188.302 403.678 85.5908C455.053 -17.1598 525.904 -80.4596 603.967 -80.4596C682.03 -80.4596 752.882 -17.1598 804.257 85.5908C855.613 188.302 887.396 330.242 887.396 487.061Z" stroke="white" stroke-width="1.32778"/>
<path d="M937.53 487.061C937.53 671.568 900.135 838.576 839.707 959.431C779.259 1080.33 695.875 1154.85 603.967 1154.85C512.06 1154.85 428.675 1080.33 368.228 959.431C307.8 838.576 270.405 671.568 270.405 487.061C270.405 302.554 307.8 135.547 368.228 14.6907C428.675 -106.205 512.06 -180.728 603.967 -180.728C695.875 -180.728 779.259 -106.205 839.707 14.6907C900.135 135.547 937.53 302.554 937.53 487.061Z" stroke="white" stroke-width="1.32778"/>
<path d="M987.664 487.061C987.664 699.256 944.658 891.331 875.157 1030.33C805.637 1169.37 709.718 1255.12 603.967 1255.12C498.216 1255.12 402.298 1169.37 332.777 1030.33C263.277 891.331 220.271 699.256 220.271 487.061C220.271 274.865 263.277 82.7912 332.777 -56.2095C402.298 -195.25 498.216 -280.996 603.967 -280.996C709.718 -280.996 805.637 -195.25 875.157 -56.2095C944.658 82.7912 987.664 274.865 987.664 487.061Z" stroke="white" stroke-width="1.32778"/>
<path d="M1037.8 487.061C1037.8 726.945 989.18 944.086 910.607 1101.23C832.014 1258.42 723.562 1355.39 603.967 1355.39C484.372 1355.39 375.92 1258.42 297.327 1101.23C218.754 944.086 170.137 726.945 170.137 487.061C170.137 247.177 218.754 30.0359 297.327 -127.11C375.92 -284.295 484.372 -381.263 603.967 -381.263C723.562 -381.263 832.014 -284.295 910.607 -127.11C989.18 30.0359 1037.8 247.177 1037.8 487.061Z" stroke="white" stroke-width="1.32778"/>
<path d="M1071.22 487.061C1071.22 745.404 1018.86 979.256 934.24 1148.5C849.6 1317.78 732.792 1422.23 603.967 1422.23C475.143 1422.23 358.335 1317.78 273.694 1148.5C189.073 979.256 136.714 745.404 136.714 487.061C136.714 228.718 189.073 -5.13396 273.694 -174.376C358.335 -343.658 475.143 -448.108 603.967 -448.108C732.792 -448.108 849.6 -343.658 934.24 -174.376C1018.86 -5.13396 1071.22 228.718 1071.22 487.061Z" stroke="white" stroke-width="1.32778"/>
<path d="M1114.67 487.061C1114.67 768.939 1057.54 1024.1 965.209 1208.76C872.856 1393.47 745.395 1507.46 604.803 1507.46C464.211 1507.46 336.75 1393.47 244.397 1208.76C152.064 1024.1 94.9363 768.939 94.9363 487.061C94.9363 205.184 152.064 -49.9758 244.397 -234.641C336.75 -419.346 464.211 -533.336 604.803 -533.336C745.395 -533.336 872.856 -419.346 965.209 -234.641C1057.54 -49.9758 1114.67 205.184 1114.67 487.061Z" stroke="white" stroke-width="1.32778"/>
</g>
<defs>
<radialGradient id="paint0_radial_301_3" cx="0" cy="0" r="1" gradientUnits="userSpaceOnUse" gradientTransform="translate(604.803 487.061) rotate(90) scale(1021.06 510.531)">
<stop stop-color="white" stop-opacity="0.2"/>
<stop offset="1" stop-color="white" stop-opacity="0.02"/>
</radialGradient>
</defs>
</svg>
